<?xml version="1.0" standalone="no"?>
<!DOCTYPE svg PUBLIC "-//W3C//DTD SVG 20010904//EN"
 "http://www.w3.org/TR/2001/REC-SVG-20010904/DTD/svg10.dtd">
<svg version="1.0" xmlns="http://www.w3.org/2000/svg"
 width="1920.000000pt" height="1080.000000pt" viewBox="0 0 1920.000000 1080.000000"
 preserveAspectRatio="xMidYMid meet">

<g transform="translate(0.000000,1080.000000) scale(0.100000,-0.100000)"
fill="#000000" stroke="none">
<path d="M8320 5410 l0 -340 25 0 25 0 0 335 0 335 263 3 262 2 -287 3 -288 2
0 -340z"/>
<path d="M9210 5410 c0 -333 0 -340 20 -340 20 0 20 7 20 335 l0 335 268 3
267 2 -287 3 -288 2 0 -340z"/>
<path d="M10163 5730 c-64 -39 -68 -52 -71 -285 -2 -115 -1 -229 3 -252 7 -51
43 -97 87 -112 l32 -11 -26 27 c-44 46 -48 71 -48 304 0 238 4 263 54 309 l28
25 276 5 277 6 -290 2 c-272 2 -292 1 -322 -18z"/>
<path d="M8868 5401 l-3 -201 28 0 27 0 -2 198 c-3 195 -3 197 -25 200 -22 3
-22 3 -25 -197z"/>
<path d="M9750 5540 l0 -59 -152 -4 -153 -3 178 -2 177 -2 0 65 c0 63 -1 65
-25 65 -24 0 -25 -3 -25 -60z"/>
<path d="M9750 5260 c0 -57 1 -60 25 -60 24 0 25 3 25 60 0 57 -1 60 -25 60
-24 0 -25 -3 -25 -60z"/>
</g>
</svg>
